# xmcd CD database file
#
# Track frame offsets:
#	150
#	15349
#	17897
#	33617
#	65335
#	67480
#	85021
#	91188
#	105625
#	118554
#	120119
#	135493
#	144498
#	153574
#	165397
#	192805
#	218260
#	229113
#
# Disc length: 3336 seconds
#
# Revision: 0
# Processed by: cddbd v1.5.2PL0 Copyright (c) Steve Scherf et al.
# Submitted via: CDex 1.70beta2
#
DISCID=e00d0612
DTITLE=Hobo Blues Band - Bolondvadászat CD1
DYEAR=2008
DGENRE=Blues
TTITLE0=A vadászok gyülekezője
TTITLE1=Kinek előbb keres odút a feje....
TTITLE2=Hajtók dala
TTITLE3=Mesél az erdő
TTITLE4=Kerítés mogott fegyveresek
TTITLE5=Fut a nyúl a mezőn
TTITLE6=A királyfi vágtat a réten
TTITLE7=A vadállatok össztánca
TTITLE8=Ott fogsz majd sírni
TTITLE9=Ki még leány s rajtam kacag...
TTITLE10=A fattyú reménytelen szerelme és halála
TTITLE11=Pisztráng dal
TTITLE12=A remete története (211. kórus)
TTITLE13=Száműzött lovag
TTITLE14=Gyáva bohóc
TTITLE15=Ballada a senki fiáról
TTITLE16=A vadászok kara
TTITLE17=A pofátlan pojáca könnyfacsaró ajánlkozása az utókornak
EXTD=YEAR: 2008
EXTT0=
EXTT1=
EXTT2=
EXTT3=
EXTT4=
EXTT5=
EXTT6=
EXTT7=
EXTT8=
EXTT9=
EXTT10=
EXTT11=
EXTT12=
EXTT13=
EXTT14=
EXTT15=
EXTT16=
EXTT17=
PLAYORDER=
